<?xml version="1.0" standalone="no"?>
<!DOCTYPE svg PUBLIC "-//W3C//DTD SVG 20010904//EN"
 "http://www.w3.org/TR/2001/REC-SVG-20010904/DTD/svg10.dtd">
<svg version="1.0" xmlns="http://www.w3.org/2000/svg"
 width="1036.000000pt" height="1036.000000pt" viewBox="0 0 1036.000000 1036.000000"
 preserveAspectRatio="xMidYMid meet">
<metadata>
Created by potrace 1.16, written by Peter Selinger 2001-2019
</metadata>
<g transform="translate(0.000000,1036.000000) scale(0.100000,-0.100000)"
fill="#000000" stroke="none">
<path d="M1 7843 c1 -1385 3 -2510 6 -2500 4 17 12 18 76 11 83 -9 116 -9 125
1 7 6 7 58 2 182 -1 31 4 64 14 84 9 17 16 42 16 54 0 29 37 75 60 75 29 0 50
-28 50 -66 0 -18 10 -57 22 -86 12 -31 24 -86 27 -133 6 -76 7 -80 31 -83 14
-2 34 -7 45 -12 40 -17 82 -22 170 -21 114 3 165 9 180 21 23 19 204 11 277
-12 55 -18 69 -20 82 -9 20 17 21 40 1 47 -8 4 -15 12 -15 18 0 7 -5 17 -12
24 -14 14 -18 52 -6 52 4 0 8 11 8 23 0 16 9 28 25 35 35 16 46 15 61 -5 16
-22 43 -9 55 25 7 18 3 24 -21 37 -29 15 -30 16 -15 45 8 16 15 37 15 47 0 15
2 16 10 3 6 -10 21 -14 46 -11 20 1 65 -3 100 -10 61 -12 64 -14 70 -45 4 -24
-1 -48 -19 -88 -31 -68 -26 -96 31 -185 23 -35 42 -72 42 -82 0 -27 22 -69 35
-69 7 0 23 24 35 52 21 49 23 69 25 303 2 186 0 256 -10 275 -25 50 -57 136
-67 180 -6 25 -17 53 -25 62 -14 16 -14 18 1 24 33 13 73 138 68 211 -2 31
-11 50 -32 70 -16 15 -26 31 -23 36 3 6 1 7 -5 3 -7 -4 -12 -2 -12 3 0 6 -11
11 -25 11 -18 0 -25 5 -25 19 0 11 6 21 12 23 9 3 8 10 -5 23 -10 9 -16 24
-13 31 10 25 -26 83 -68 110 -38 25 -44 26 -96 17 -48 -9 -102 -25 -175 -54
-22 -8 -49 -14 -137 -32 -59 -11 -70 -24 -43 -47 16 -13 20 -57 7 -76 -4 -6
-28 -16 -54 -24 -27 -7 -48 -16 -48 -20 0 -9 -49 -18 -140 -26 -36 -3 -69 -10
-74 -15 -6 -5 -18 -9 -28 -9 -19 0 -24 -15 -8 -25 17 -11 12 -62 -7 -70 -17
-6 -17 -7 -1 -19 23 -17 23 -36 0 -36 -11 0 -27 -9 -37 -20 -27 -29 -44 -25
-87 23 -33 37 -37 48 -38 96 0 50 16 119 31 131 15 12 27 81 27 154 1 49 5 82
12 86 13 8 16 57 12 186 -2 68 -6 85 -25 107 -12 15 -31 27 -41 27 -11 0 -16
3 -13 7 4 3 -9 21 -28 40 -19 19 -35 42 -36 51 0 14 -2 13 -9 -3 -7 -17 -9
-17 -9 -3 -2 41 204 483 304 652 45 77 115 176 89 127 -9 -17 -13 -74 -6 -66
3 3 12 -13 20 -36 13 -41 56 -88 80 -89 11 0 17 -26 12 -59 -1 -7 8 -22 19
-32 11 -10 23 -36 26 -56 9 -56 36 -127 52 -136 11 -7 13 -37 11 -142 -4 -160
0 -167 96 -184 98 -17 148 -14 187 12 42 28 47 49 36 161 -10 111 -4 154 23
173 19 13 29 63 12 63 -20 0 -41 64 -53 158 -11 94 -14 103 -35 108 -13 3 -37
-1 -55 -10 -18 -9 -38 -16 -46 -16 -7 0 -13 -5 -13 -11 0 -5 -4 -8 -9 -5 -5 3
-12 -1 -15 -10 -4 -9 -15 -14 -28 -12 -27 4 -36 45 -18 79 12 21 16 55 24 203
4 76 11 86 69 86 43 0 74 -25 82 -67 3 -16 10 -42 15 -59 6 -17 10 -39 11 -50
0 -18 1 -18 9 1 7 17 9 17 9 3 1 -10 8 -18 17 -18 10 0 14 6 11 15 -4 8 7 25
26 41 42 35 88 29 140 -19 20 -20 37 -40 37 -45 0 -6 7 -12 15 -16 8 -3 20
-17 25 -31 8 -22 15 -25 58 -25 26 0 52 4 58 9 10 10 118 24 174 22 78 -2 93
-10 140 -72 25 -34 43 -66 41 -73 -2 -6 -5 -25 -7 -41 -1 -17 -9 -57 -18 -90
-15 -51 -15 -67 -5 -105 8 -27 12 -90 10 -161 -3 -133 11 -183 54 -199 43 -16
235 -12 288 6 26 9 48 21 48 27 2 16 -4 42 -14 67 -47 116 -55 189 -24 223 31
34 39 59 27 88 -10 23 -20 29 -58 35 -40 6 -48 4 -65 -17 -13 -15 -21 -20 -24
-12 -3 7 -15 10 -31 7 -30 -6 -124 47 -120 67 2 6 -6 16 -17 22 -31 18 -32 23
-23 95 10 75 22 114 50 154 l19 28 147 -2 c82 -1 158 3 172 9 32 13 126 1 145
-18 17 -17 45 -148 45 -212 0 -53 -9 -75 -52 -127 -15 -19 -28 -43 -28 -53 0
-22 26 -75 50 -102 25 -28 29 -78 13 -149 -8 -33 -17 -78 -20 -98 -4 -33 -2
-38 15 -38 11 0 22 -6 25 -13 3 -7 23 -19 46 -27 23 -7 41 -17 41 -22 0 -12
44 -10 135 7 44 8 80 14 80 15 6 12 114 100 123 100 7 0 25 -13 40 -29 45 -49
182 -69 216 -32 18 19 44 123 44 173 0 14 11 41 25 60 15 19 33 64 42 106 9
39 20 72 24 72 4 0 18 24 31 53 12 28 28 63 34 77 13 28 32 43 62 47 18 3 22
-3 27 -41 4 -25 0 -78 -8 -121 -8 -42 -15 -101 -15 -130 0 -39 -8 -69 -30
-113 -29 -59 -39 -127 -24 -167 9 -23 51 -42 109 -49 108 -14 126 -18 155 -29
28 -10 105 -16 146 -10 38 5 41 8 50 47 8 34 13 41 32 39 25 -3 30 18 7 37 -8
7 -15 19 -15 26 0 8 -4 14 -8 14 -5 0 -21 45 -37 99 -26 91 -27 104 -16 157
12 64 53 134 76 134 8 0 15 -8 15 -19 0 -10 3 -38 6 -62 5 -40 2 -48 -31 -91
-34 -43 -37 -51 -31 -91 9 -59 48 -129 82 -148 27 -14 29 -21 34 -85 3 -38 14
-92 24 -120 12 -32 16 -61 12 -78 -6 -25 -10 -27 -39 -20 -17 3 -37 14 -44 23
-19 27 -26 8 -23 -69 0 -8 -3 -32 -6 -52 -4 -25 -2 -38 5 -38 14 0 30 -39 36
-88 3 -26 -1 -42 -15 -57 -18 -19 -18 -22 -3 -52 8 -18 19 -30 23 -28 5 3 15
-4 23 -15 20 -29 74 -43 116 -29 29 10 35 9 43 -5 9 -16 11 -16 21 -1 11 13
15 10 32 -22 11 -21 26 -44 32 -51 7 -7 13 -22 13 -32 0 -11 6 -23 13 -27 15
-9 28 -37 33 -71 1 -13 7 -29 12 -35 5 -7 10 -30 10 -51 1 -21 8 -47 17 -56 8
-9 14 -25 13 -36 -2 -28 13 -84 24 -84 5 0 8 -22 7 -50 -2 -41 -6 -50 -21 -50
-10 0 -18 -4 -18 -10 0 -5 9 -10 20 -10 11 0 20 -4 20 -10 0 -5 -5 -10 -11
-10 -17 0 -49 20 -49 31 0 5 -9 19 -20 31 -21 23 -23 29 -41 190 -10 86 -15
105 -27 100 -11 -4 -14 0 -10 15 4 16 1 19 -12 16 -11 -3 -19 2 -23 16 -3 13
-13 21 -26 21 -12 0 -21 6 -21 15 0 8 -7 15 -15 15 -8 0 -14 6 -12 13 1 6 -5
10 -13 8 -8 -3 -84 -7 -169 -9 -121 -3 -155 -1 -162 10 -5 7 -9 46 -9 86 0 41
-4 72 -10 72 -5 0 -10 6 -10 13 0 17 -46 57 -65 57 -8 0 -15 5 -15 10 0 6 -9
10 -21 10 -15 0 -20 5 -17 23 2 17 -3 23 -20 25 -21 3 -23 8 -21 53 3 52 -1
61 -29 65 -40 4 -83 17 -88 25 -3 5 -10 7 -15 4 -5 -4 -9 -1 -9 5 0 7 -8 9
-21 5 -12 -4 -31 -2 -44 5 -18 10 -28 9 -53 -4 -17 -9 -38 -16 -47 -16 -8 0
-15 -6 -15 -14 0 -14 -73 -93 -140 -151 -55 -48 -118 -68 -197 -61 -160 12
-214 26 -244 62 -20 25 -106 63 -142 62 -35 0 -137 -28 -137 -38 0 -3 -11 -7
-26 -8 -14 -1 -34 -7 -45 -12 -10 -6 -54 -10 -97 -8 -56 2 -86 -2 -109 -14
-18 -9 -49 -19 -70 -23 -47 -8 -69 -24 -84 -61 -34 -83 -1 -133 98 -148 48 -7
73 0 73 21 0 32 31 73 54 73 14 0 26 5 28 10 7 22 208 8 277 -19 25 -11 51
-19 56 -18 6 0 17 -14 25 -30 19 -37 40 -58 67 -67 11 -4 29 -16 39 -27 15
-17 16 -24 6 -40 -7 -11 -8 -19 -2 -19 5 0 10 -7 10 -16 0 -15 -3 -14 -27 2
-16 10 -34 24 -41 31 -27 26 -56 36 -109 34 -29 0 -72 6 -95 14 -30 10 -44 11
-49 3 -5 -8 -16 -8 -39 1 -42 14 -40 15 -40 -14 0 -16 6 -25 15 -25 9 0 18 -7
21 -15 4 -9 19 -15 40 -15 31 0 34 -3 34 -30 0 -20 -5 -30 -15 -30 -10 0 -15
-10 -15 -27 -1 -24 -2 -26 -13 -12 -7 9 -32 18 -57 21 -25 3 -38 3 -29 1 15
-4 13 -8 -7 -28 -26 -26 -30 -58 -26 -217 2 -74 1 -79 -27 -106 -20 -19 -40
-28 -62 -27 -29 0 -35 5 -45 35 -7 19 -15 48 -19 63 -12 56 -137 81 -175 35
-19 -23 -27 -58 -12 -58 7 0 24 -64 38 -145 9 -50 -12 -67 -84 -66 -82 0 -97
-15 -109 -106 -14 -121 -5 -1365 11 -1380 4 -4 15 -2 26 5 11 6 22 8 25 3 3
-5 0 -11 -7 -13 -7 -3 -9 -14 -3 -34 5 -18 9 -23 12 -14 3 8 7 22 10 30 3 8 8
24 10 35 2 11 8 21 13 23 5 2 7 28 4 60 -5 61 5 90 27 76 8 -5 20 -9 28 -11
82 -12 105 -71 61 -154 -5 -9 -12 -33 -16 -54 -3 -20 -12 -39 -19 -41 -7 -3
-15 -22 -19 -43 -3 -21 -15 -48 -26 -61 -11 -13 -20 -28 -20 -34 0 -24 -42
-48 -74 -43 -17 2 -39 0 -49 -5 -23 -12 -47 -72 -47 -117 0 -37 30 -114 49
-125 13 -8 7 -51 -19 -156 -25 -97 -46 -213 -60 -325 -9 -72 -21 -112 -59
-195 -59 -130 -87 -218 -106 -340 -25 -167 -33 -208 -50 -256 -20 -58 -42
-205 -50 -334 -6 -84 -59 -312 -85 -359 -5 -10 -39 22 -119 111 -277 309 -526
675 -724 1064 -77 151 -80 160 -56 160 10 0 19 -5 19 -11 0 -6 3 -7 8 0 4 6
41 11 82 11 265 4 541 3 580 -2 63 -7 294 12 327 28 57 27 36 145 -30 167 -16
6 -56 11 -88 11 -32 0 -60 4 -63 9 -3 4 -37 11 -76 13 -79 6 -105 24 -94 68 3
14 8 37 11 51 5 25 9 27 80 34 77 7 143 35 143 60 0 7 19 30 41 51 99 92 104
99 122 170 14 51 18 100 16 189 -2 66 3 178 10 250 10 111 10 139 -3 200 -21
94 -21 119 -1 340 19 199 12 366 -16 428 -11 25 -29 37 -29 20 0 -5 -16 -26
-35 -47 -20 -21 -43 -51 -52 -67 -16 -27 -43 -44 -97 -60 -34 -10 -123 25
-131 52 -4 10 -13 15 -23 12 -22 -5 -64 37 -44 44 10 4 10 8 1 19 -9 12 -6 14
21 14 29 0 32 -2 26 -24 -8 -31 7 -41 35 -25 l22 11 -23 18 -23 18 21 6 c27 9
28 30 3 65 -11 15 -23 39 -26 54 -7 27 -19 40 -43 43 -16 3 -27 -18 -45 -88
-13 -51 -13 -59 0 -70 13 -11 12 -14 -7 -30 -17 -14 -21 -25 -17 -47 9 -45 -1
-70 -26 -64 -34 8 -178 3 -217 -7 -20 -5 -105 -9 -190 -7 -151 2 -156 1 -190
-23 -19 -14 -38 -29 -42 -35 -11 -14 -3 -64 20 -132 11 -32 26 -84 33 -116 12
-55 54 -137 71 -137 12 0 58 -46 58 -58 0 -6 19 -29 43 -52 32 -31 39 -42 28
-49 -9 -6 -11 -14 -4 -26 12 -20 -16 -55 -43 -55 -19 0 -49 -33 -71 -80 -20
-42 -22 -211 -3 -279 9 -36 9 -55 -5 -111 -16 -65 -19 -69 -63 -93 -26 -13
-64 -28 -84 -31 -28 -5 -38 -12 -38 -26 0 -10 -5 -22 -11 -26 -10 -6 -5 -76 8
-110 10 -27 63 -23 83 7 9 13 182 -49 197 -71 8 -11 21 -20 29 -20 8 0 14 -7
14 -15 0 -9 7 -18 15 -21 10 -4 15 -20 15 -45 0 -34 -3 -39 -24 -39 -13 0 -29
7 -37 16 -9 11 -22 14 -43 10 -46 -10 -86 -29 -86 -43 0 -16 -42 -27 -75 -21
-18 4 -25 1 -25 -10 0 -13 -3 -13 -12 -4 -18 18 -28 15 -21 -5 6 -15 4 -16 -9
-5 -28 23 -150 351 -218 587 -58 204 -99 425 -78 425 5 0 7 3 5 8 -6 9 19 589
26 617 3 11 6 30 6 41 1 14 11 26 31 34 28 12 41 30 21 30 -5 0 -14 12 -19 28
l-9 27 -13 -27 c-16 -34 -58 -51 -107 -44 -21 3 -41 5 -45 6 -4 0 -9 19 -11
43 -2 23 -4 -1082 -5 -2455 l-2 -2498 5180 0 5180 0 0 5180 0 5180 -2532 -2
c-1393 -1 -2501 -3 -2463 -5 135 -5 342 -24 530 -49 443 -58 851 -168 1255
-336 129 -54 280 -124 280 -131 0 -1 -252 -3 -559 -4 -308 -1 -574 -6 -593
-11 -23 -6 -67 -3 -143 9 -90 15 -149 17 -328 13 -203 -5 -222 -7 -271 -29
l-52 -24 -69 19 c-40 11 -123 21 -194 24 -97 4 -127 9 -133 21 -16 28 -67 47
-109 40 -64 -11 -1147 14 -1334 31 -187 17 -436 22 -475 10 -66 -20 25 26 141
72 462 184 1022 308 1539 341 81 5 -866 9 -2357 10 l-2493 1 1 -2517z m3101
1815 c40 -44 98 -154 98 -187 0 -21 19 -31 56 -31 17 0 24 -6 24 -20 0 -11 5
-20 10 -20 6 0 10 17 10 39 0 21 6 44 14 50 12 10 15 3 20 -41 21 -216 59
-368 90 -368 7 0 19 12 26 26 12 21 12 29 1 47 -9 13 -13 50 -13 101 2 140 80
386 122 386 10 0 20 7 24 15 3 8 16 15 29 15 13 0 27 3 31 7 11 12 40 12 53 1
8 -6 16 -8 20 -4 3 3 15 -2 26 -11 22 -21 109 -22 132 -3 19 16 147 9 168 -8
14 -12 13 -19 -9 -68 -26 -59 -26 -63 9 -159 13 -35 23 -139 18 -201 0 -12
-19 -44 -42 -73 -22 -28 -38 -55 -34 -61 3 -5 2 -10 -2 -10 -5 0 -8 -14 -8
-31 0 -21 -7 -35 -20 -43 -78 -45 -95 -58 -95 -75 0 -23 48 -40 128 -44 6 0
12 -6 12 -14 0 -7 11 -13 24 -13 13 0 28 -6 34 -12 15 -19 25 -80 15 -87 -10
-6 -61 -187 -90 -315 -10 -43 -24 -81 -31 -83 -21 -9 -75 26 -105 67 -17 25
-41 43 -65 50 -20 7 -75 27 -122 45 -114 45 -150 51 -189 31 -23 -13 -31 -23
-31 -44 0 -16 -5 -33 -12 -40 -9 -9 -9 -12 0 -12 17 0 15 -25 -4 -41 -14 -11
-18 -11 -29 4 -10 14 -28 17 -94 17 -47 0 -81 -4 -81 -10 0 -5 -6 -10 -14 -10
-23 0 -52 -71 -60 -145 -4 -38 -12 -73 -19 -77 -9 -6 -9 -8 1 -8 20 0 14 -55
-9 -76 -20 -18 -37 -19 -368 -14 -610 9 -1231 -5 -1294 -29 -62 -24 -107 -2
-107 53 -1 89 -27 103 -207 108 -73 2 -133 6 -133 9 0 11 88 128 179 238 354
427 817 828 1294 1120 70 43 150 80 131 61 -11 -11 -6 -42 18 -95 5 -11 11
-34 13 -50 2 -17 4 -30 5 -30 1 0 3 -27 5 -61 1 -33 7 -69 12 -79 9 -15 11
-14 17 11 7 28 8 28 22 10 22 -31 18 -66 -8 -67 -19 -1 -18 -2 7 -10 23 -6 31
-5 38 6 4 9 12 13 17 10 5 -3 11 -1 15 5 3 5 19 7 35 3 26 -5 30 -3 31 18 2
24 2 24 6 2 3 -14 11 -23 21 -22 11 0 12 3 5 6 -17 6 -16 23 1 23 10 0 18 22
25 73 7 39 18 86 26 102 8 17 20 50 27 74 13 46 70 111 96 111 8 0 32 -19 54
-42z m3402 -15 c25 -26 48 -55 51 -64 8 -23 83 -59 124 -59 17 0 44 -6 59 -14
34 -17 85 -19 143 -4 57 14 128 4 170 -25 61 -41 67 -81 68 -429 l1 -308 97 0
c53 0 93 -3 90 -7 -4 -4 -30 -6 -57 -4 -30 1 -50 -2 -50 -9 0 -5 19 -10 43
-10 23 0 58 -3 77 -6 31 -5 37 -2 53 24 9 17 17 48 17 70 0 23 5 44 10 47 12
8 11 103 -2 111 -13 8 -9 55 9 102 13 36 14 55 6 110 -5 37 -7 83 -3 102 4 19
14 70 21 112 12 74 15 78 48 94 63 30 243 5 256 -36 14 -44 71 -56 118 -25 23
15 27 14 64 -5 59 -30 109 -80 121 -120 6 -19 13 -75 16 -124 3 -55 10 -92 17
-97 16 -9 57 36 65 71 3 14 9 33 15 42 5 10 9 29 9 42 0 14 4 36 10 50 5 15
11 42 13 61 3 20 7 38 10 42 9 8 245 -172 383 -291 115 -99 263 -246 247 -246
-5 0 -14 5 -19 10 -7 7 -19 -5 -38 -40 -15 -27 -31 -50 -37 -50 -13 0 -11 -68
3 -76 18 -11 180 -7 212 6 27 10 32 7 79 -42 27 -29 81 -91 121 -138 39 -47
74 -87 77 -90 13 -11 161 -214 173 -239 l14 -26 -493 1 c-272 1 -522 5 -557 9
-35 3 -405 5 -823 4 -418 -2 -819 -2 -891 0 -126 2 -133 1 -147 -19 -14 -21
-14 -24 14 -51 16 -16 34 -29 39 -29 6 0 10 -11 10 -24 0 -22 2 -23 78 -21 42
1 89 -3 104 -7 16 -6 42 -5 70 2 51 14 197 14 250 -1 21 -5 49 -22 63 -37 18
-20 29 -24 39 -17 63 46 69 49 129 47 74 -2 87 -15 87 -81 0 -25 5 -142 10
-259 7 -132 7 -226 1 -247 -7 -26 -5 -40 10 -63 19 -32 54 -56 68 -48 10 6 51
-22 51 -35 0 -5 15 -25 33 -44 59 -63 128 -63 159 -2 25 49 42 125 39 173 -6
102 -5 146 7 278 13 142 26 190 60 224 40 40 162 -7 162 -64 0 -8 5 -14 10
-14 6 0 10 -7 10 -16 0 -29 42 -154 50 -149 12 7 26 53 46 145 23 110 56 186
85 195 23 8 29 2 106 -87 18 -21 35 -33 38 -28 14 23 87 51 115 45 33 -7 108
22 115 46 12 38 120 58 214 40 49 -10 70 -9 108 2 90 26 223 5 239 -38 3 -8
14 -17 24 -20 31 -10 34 -73 5 -128 -24 -47 -34 -117 -16 -117 4 0 11 -19 14
-42 3 -23 13 -45 22 -50 9 -6 14 -17 10 -27 -8 -26 21 -48 45 -34 25 16 40 -2
40 -48 0 -29 -6 -43 -26 -58 -15 -11 -30 -18 -35 -15 -15 9 -82 -19 -111 -46
-22 -19 -28 -34 -28 -66 0 -51 23 -130 46 -155 16 -17 16 -21 -1 -54 -16 -35
-16 -37 2 -51 10 -8 26 -12 36 -9 9 3 26 8 37 11 12 4 20 2 20 -5 0 -6 7 -11
15 -11 8 0 15 -4 15 -9 0 -17 75 -35 135 -33 63 3 73 24 73 158 0 63 5 120 11
132 14 27 14 84 -1 117 -9 20 -8 55 2 153 7 70 13 141 13 157 -1 55 25 127 58
156 17 15 28 32 24 38 -3 6 -3 11 2 11 4 0 15 -12 25 -28 9 -15 33 -54 54 -87
109 -175 266 -490 233 -470 -13 9 -11 1 8 -39 9 -19 20 -33 24 -30 4 2 11 -1
15 -7 4 -8 3 -9 -4 -5 -14 8 -15 5 -6 -19 5 -11 9 -13 14 -6 11 19 143 -299
190 -460 12 -41 28 -94 37 -119 61 -184 148 -596 177 -835 25 -206 24 -221
-10 -247 -16 -13 -40 -33 -53 -46 -14 -14 -44 -28 -75 -33 -69 -13 -84 -13
-101 4 -8 9 -19 17 -24 19 -12 4 -13 34 -7 209 6 149 14 219 27 219 4 0 13 17
19 38 7 20 21 51 31 68 20 34 27 134 9 134 -5 0 -10 9 -10 19 0 11 -13 30 -29
43 -17 15 -31 39 -35 61 -4 20 -11 37 -17 37 -6 0 -8 4 -4 10 7 12 -30 50 -49
50 -7 0 -19 -7 -26 -15 -7 -9 -32 -24 -54 -35 -47 -21 -87 -62 -91 -94 -8 -61
-17 -76 -46 -76 -27 0 -29 -3 -29 -40 0 -33 -3 -40 -20 -40 -16 0 -20 7 -20
37 0 25 -10 48 -32 78 -37 48 -76 59 -160 46 -56 -9 -84 -32 -105 -84 -9 -22
-27 -44 -44 -53 -16 -8 -29 -19 -29 -25 0 -10 -50 -58 -62 -59 -4 0 -19 -5
-35 -12 -15 -6 -34 -10 -40 -9 -7 1 -13 -3 -13 -9 0 -16 -63 -40 -105 -40 -40
0 -39 -4 -37 131 l1 77 -32 5 c-17 3 -53 9 -79 13 -38 5 -48 10 -48 25 0 11
-3 18 -7 17 -5 -1 -25 2 -47 7 -23 5 -65 3 -106 -4 -64 -12 -70 -11 -131 15
-63 27 -67 28 -326 32 -208 3 -281 0 -354 -12 -51 -9 -108 -16 -127 -16 -38 0
-131 40 -152 65 -7 8 -19 15 -26 15 -18 0 -40 37 -48 82 -7 40 -48 78 -83 78
-10 0 -23 4 -28 9 -19 18 -210 46 -305 45 -126 -2 -180 -17 -180 -48 0 -13 -7
-26 -15 -30 -8 -3 -15 -12 -15 -20 0 -8 7 -21 15 -30 8 -8 15 -17 15 -20 0 -7
60 -66 68 -66 16 -1 41 -50 52 -103 9 -46 17 -60 38 -71 15 -8 37 -27 48 -43
l22 -29 -24 -27 c-13 -16 -24 -32 -24 -37 0 -14 44 -40 76 -46 63 -12 81 -44
70 -128 -6 -41 -4 -45 41 -92 50 -51 73 -91 73 -124 0 -11 -5 -20 -11 -20 -5
0 -8 -4 -4 -9 3 -5 -8 -18 -25 -28 -37 -22 -48 -55 -27 -86 20 -31 37 -96 27
-102 -5 -3 -5 -19 0 -35 6 -21 5 -30 -3 -30 -25 -1 126 -73 229 -110 28 -10
70 -30 92 -44 23 -14 48 -26 55 -26 8 0 17 -3 21 -7 3 -4 14 -8 22 -9 73 -11
220 -91 201 -110 -7 -7 -87 19 -87 28 0 5 -6 8 -13 8 -7 0 -31 8 -53 19 -43
20 -131 50 -244 82 -41 12 -83 25 -92 30 -10 5 -29 9 -42 9 -14 0 -27 4 -30 9
-3 4 -30 11 -61 15 -30 3 -74 13 -98 22 -23 8 -49 17 -58 19 -48 11 -92 25
-164 54 -44 18 -96 39 -115 46 -177 68 -251 95 -262 95 -8 0 -32 9 -53 20 -22
11 -61 27 -86 34 -26 8 -60 21 -77 30 -41 21 -59 20 -65 -4 -3 -11 -13 -20
-24 -20 -20 0 -73 42 -73 58 0 18 20 24 36 11 13 -10 14 -7 8 28 -6 38 -5 41
24 51 35 12 70 6 94 -17 36 -34 48 -41 67 -41 11 0 22 -4 25 -9 3 -4 37 -16
75 -25 38 -9 104 -35 146 -57 43 -22 97 -42 122 -46 39 -5 45 -4 50 16 3 11
12 21 19 21 16 0 19 37 5 59 -14 22 10 51 41 51 16 0 28 5 28 10 0 6 -4 10
-10 10 -6 0 -10 30 -10 70 0 40 -4 70 -10 70 -5 0 -10 9 -10 20 0 11 -4 20 -9
20 -5 0 -9 27 -10 60 0 33 3 60 8 60 4 0 14 18 21 40 16 49 3 86 -35 96 -13 3
-22 10 -19 15 3 5 -1 9 -10 9 -8 0 -16 5 -18 10 -9 29 -188 56 -188 29 0 -7
-20 -10 -57 -7 l-58 3 -1 -45 c-1 -55 4 -70 22 -70 8 0 14 -6 14 -14 0 -16
-42 -31 -112 -41 -27 -3 -48 -10 -48 -16 0 -5 -9 -9 -20 -9 -13 0 -20 -7 -20
-19 0 -28 -11 -52 -21 -45 -5 3 -9 0 -9 -5 0 -6 -11 -11 -25 -11 -29 0 -31 11
-8 47 11 17 14 28 7 30 -13 4 -6 53 7 53 5 0 9 11 9 24 0 13 9 45 20 71 11 26
21 64 22 86 1 31 6 40 28 49 15 6 34 12 43 14 8 1 22 7 30 14 12 10 16 10 19
0 4 -11 10 -10 30 1 14 7 32 11 40 9 20 -7 108 42 118 66 11 27 124 146 139
146 6 0 11 7 11 15 0 8 5 15 10 15 6 0 10 8 10 18 0 10 4 22 8 28 5 5 15 36
22 69 13 60 34 108 58 133 7 8 28 39 47 68 19 30 39 54 45 54 5 0 12 11 16 24
3 14 19 31 37 40 33 16 74 56 57 56 -6 0 -10 4 -10 8 0 9 4 10 53 15 16 2 35
14 44 28 l17 24 -24 -20 c-20 -17 -23 -18 -17 -2 5 14 1 17 -23 17 -16 0 -35
6 -43 14 -16 17 -86 11 -128 -10 -14 -7 -37 -10 -50 -7 -25 6 -69 45 -69 62 0
6 -8 15 -17 21 -16 9 -14 14 22 45 22 19 47 35 56 35 8 0 29 15 47 33 17 18
54 41 82 52 27 11 50 23 50 27 0 5 11 6 24 2 26 -6 39 6 30 29 -11 31 -277 16
-331 -19 -12 -8 -30 -14 -40 -14 -20 0 -64 -42 -67 -65 -1 -8 -5 -18 -9 -21
-4 -4 -7 -16 -7 -26 0 -10 -4 -18 -10 -18 -5 0 -10 -9 -10 -19 0 -11 -4 -22
-9 -25 -11 -7 -63 32 -117 88 -54 57 -87 67 -114 35 -45 -53 -106 -201 -144
-350 -15 -58 -22 -68 -59 -93 -23 -15 -54 -30 -69 -33 -17 -3 -28 -14 -32 -29
-4 -14 -18 -50 -32 -82 -81 -182 -118 -239 -161 -251 -19 -5 -41 -7 -49 -4 -8
3 -14 0 -14 -6 0 -6 -7 -11 -15 -11 -9 0 -25 -9 -37 -20 -12 -11 -36 -23 -54
-26 -18 -3 -39 -12 -45 -20 -9 -11 -15 -11 -25 -3 -10 8 -21 6 -43 -10 -16
-12 -32 -21 -36 -21 -4 0 -27 -13 -52 -30 -24 -16 -49 -30 -55 -30 -7 0 -26
-5 -43 -11 -28 -10 -34 -9 -60 15 -15 14 -33 26 -40 26 -18 0 -66 40 -60 50 3
4 -2 10 -10 14 -8 3 -15 17 -15 30 0 40 -30 49 -71 23 -19 -13 -46 -28 -61
-34 -24 -11 -27 -10 -30 10 -2 17 -8 21 -28 18 -60 -9 -75 -6 -77 14 -2 15 9
25 50 44 28 13 59 27 67 32 8 5 39 21 68 35 44 22 60 41 50 58 -2 2 5 13 15
24 34 37 19 62 -53 89 -85 32 -191 41 -256 20 -27 -8 -61 -18 -76 -21 -41 -9
-51 -37 -32 -86 9 -22 14 -50 11 -61 -4 -16 4 -26 39 -47 53 -32 56 -53 14
-110 -48 -67 -102 -111 -134 -112 -36 0 -106 20 -106 32 0 4 -7 8 -16 8 -8 0
-30 11 -48 25 -18 14 -35 22 -38 19 -4 -3 -19 1 -35 9 -19 10 -34 12 -45 6
-31 -17 -33 0 -38 246 -2 84 -19 155 -37 155 -4 0 -23 -9 -41 -20 -18 -11 -34
-20 -36 -20 -2 0 -9 14 -15 31 -10 29 -14 31 -48 27 -21 -3 -42 -6 -48 -7 -5
-2 -30 -3 -55 -2 -42 1 -47 4 -73 46 -16 25 -33 45 -37 45 -12 0 -30 67 -30
113 0 21 -5 47 -11 59 -11 20 -36 191 -43 291 -5 70 18 254 44 352 12 44 23
105 25 135 3 39 10 59 23 70 14 11 19 25 17 50 -3 37 27 151 49 185 7 11 16
37 20 57 4 21 18 51 31 67 14 16 25 34 25 41 0 7 8 24 18 38 20 29 36 83 52
180 10 55 17 69 60 114 28 29 50 57 50 63 1 5 14 26 30 45 17 19 30 40 30 47
0 7 16 15 35 19 19 3 35 11 35 16 0 6 18 8 43 6 23 -2 56 2 74 9 18 7 42 13
54 13 12 0 27 7 33 15 9 13 22 14 81 5 91 -13 180 -13 229 1 21 6 100 12 175
15 75 2 170 6 211 9 203 13 327 24 342 30 16 6 20 1 59 -90 4 -11 9 -31 11
-45 3 -21 9 -25 40 -28 41 -3 63 -27 88 -92 7 -19 18 -40 23 -47 5 -7 11 -41
14 -75 3 -35 12 -71 20 -80 8 -9 13 -30 12 -46 -2 -16 2 -40 8 -53 6 -13 14
-32 17 -41 3 -10 21 -24 41 -32 35 -15 39 -22 36 -63 -2 -14 5 -24 20 -28 18
-6 21 -12 16 -47 -5 -35 -2 -40 19 -48 13 -5 25 -17 25 -27 1 -10 2 -27 3 -38
1 -29 22 -59 34 -51 13 8 47 115 43 136 -1 8 -6 83 -10 165 -6 109 -15 177
-33 250 -37 144 -42 192 -25 261 22 87 29 194 17 248 -6 27 -33 94 -60 151
-28 56 -50 108 -50 114 0 7 -16 32 -35 56 -22 26 -32 46 -25 50 19 12 11 38
-10 32 -23 -6 -33 4 -25 25 4 11 18 13 55 8 46 -6 50 -5 44 12 -4 14 0 18 18
18 30 1 53 19 61 50 4 14 10 30 14 36 14 19 87 64 105 64 9 0 37 -21 62 -47z
m-3036 -1268 c9 -17 58 -22 107 -11 25 5 37 0 68 -27 39 -33 46 -52 33 -100
-4 -19 -3 -26 4 -22 5 3 14 -5 19 -18 6 -14 23 -29 40 -35 32 -11 36 -18 23
-39 -12 -19 -47 -20 -44 -2 1 10 -6 19 -18 22 -12 3 -20 0 -20 -8 0 -19 -74
-28 -220 -26 -198 2 -213 9 -186 87 14 42 92 124 117 124 10 0 21 5 24 10 3 6
17 7 31 4 14 -4 24 -2 24 5 0 6 -7 11 -15 11 -8 0 -15 9 -15 20 0 24 15 26 28
5z m5847 -523 c27 -7 51 -15 53 -17 2 -2 -4 -17 -12 -34 -9 -16 -16 -37 -16
-46 0 -10 -10 -15 -31 -15 -22 0 -30 -4 -26 -14 8 -21 -13 -37 -35 -25 -13 7
-18 21 -18 54 0 31 -5 47 -17 53 -15 9 -13 13 13 40 16 16 31 27 34 23 3 -3
27 -12 55 -19z m-6222 -154 c48 -25 72 -61 69 -100 -2 -25 -8 -38 -18 -38 -8
0 -17 -6 -20 -14 -8 -20 -56 -38 -90 -34 -33 3 -56 42 -59 98 -4 51 8 72 46
86 44 16 46 16 72 2z m3719 -705 c6 -7 7 -13 2 -13 -5 0 -18 -19 -28 -43 -19
-40 -99 -127 -117 -127 -10 0 -2 44 13 73 5 9 6 22 3 27 -3 6 -2 10 4 10 5 0
12 17 16 38 5 33 13 42 48 59 38 18 42 19 46 4 2 -9 8 -22 13 -28z m-162 -250
c0 -1 -7 -31 -15 -68 -16 -66 -47 -113 -73 -107 -17 4 -52 -26 -52 -44 0 -7
-9 -18 -20 -24 -11 -6 -30 -30 -41 -53 -32 -62 -46 -69 -92 -46 -31 17 -37 24
-32 42 5 16 4 18 -3 8 -8 -11 -11 -9 -17 8 -4 12 0 29 9 43 9 12 13 31 10 44
-4 17 5 37 38 78 49 61 83 82 148 91 25 3 56 12 70 20 20 11 70 17 70 8z
m-555 -343 c6 -10 28 -211 27 -250 -4 -125 -28 -189 -103 -275 -32 -36 -128
-105 -146 -105 -6 0 -14 -7 -17 -16 -4 -11 -13 -14 -30 -10 -16 4 -30 0 -40
-9 -8 -8 -24 -15 -35 -15 -12 0 -21 -4 -21 -10 0 -10 -62 -30 -94 -30 -16 0
-17 5 -11 38 4 20 13 44 21 53 8 9 12 23 9 30 -3 8 1 23 9 34 10 12 15 15 16
7 0 -7 5 -10 10 -7 8 5 8 11 1 19 -8 9 -7 26 2 57 10 34 18 45 36 47 13 2 25
12 28 22 3 9 16 23 29 29 13 6 24 17 24 24 0 7 11 24 25 37 14 13 25 29 25 35
0 6 11 21 25 33 14 12 25 26 25 32 0 5 6 10 14 10 8 0 18 10 22 23 3 12 13 29
21 37 15 15 42 59 83 133 20 37 34 45 45 27z m-5188 -417 c23 -12 47 -23 53
-23 13 0 59 -50 60 -65 0 -14 40 -38 40 -24 0 6 8 9 17 7 11 -2 17 -12 17 -28
0 -21 -4 -25 -27 -24 -15 0 -27 -3 -27 -6 0 -4 -6 -7 -13 -7 -7 0 -25 -3 -40
-7 -15 -3 -27 -2 -27 3 0 5 -20 12 -44 15 -24 4 -49 13 -55 20 -6 7 -30 19
-53 27 -53 17 -111 55 -120 78 -9 26 4 40 48 56 50 17 116 9 171 -22z m2406 8
c4 -1 7 -5 7 -10 0 -5 5 -22 11 -38 15 -37 19 -85 9 -98 -12 -15 -14 -46 -6
-87 8 -38 13 -42 51 -39 11 1 30 -7 42 -18 11 -11 23 -18 26 -15 2 2 10 -2 16
-10 11 -13 15 -13 32 2 10 9 19 20 19 24 0 14 53 68 67 68 7 0 13 7 13 15 0
19 19 19 40 0 9 -8 43 -20 76 -26 63 -11 122 -45 157 -91 20 -25 29 -28 89
-29 60 -1 67 -4 77 -26 7 -16 17 -23 26 -19 11 4 15 -2 15 -18 0 -14 6 -27 13
-29 9 -4 8 -8 -3 -17 -11 -9 -3 -10 38 -5 42 6 52 4 52 -8 0 -19 -29 -43 -64
-51 -16 -4 -36 -16 -45 -27 -9 -11 -41 -26 -71 -34 -30 -7 -100 -30 -155 -50
-203 -75 -237 -85 -338 -100 -56 -8 -160 -33 -232 -54 -71 -22 -155 -46 -185
-54 -30 -8 -81 -23 -113 -32 -31 -10 -60 -15 -63 -12 -3 3 -7 62 -9 132 -2 70
-6 129 -8 132 -3 2 0 21 7 41 9 26 20 38 42 44 36 10 54 4 54 -19 0 -10 10
-46 22 -81 19 -55 27 -66 66 -87 25 -14 54 -25 65 -25 20 0 20 0 1 -15 -17
-13 -18 -14 -1 -15 23 0 83 25 91 39 4 6 -4 15 -18 21 -30 11 -33 25 -10 34
22 8 11 52 -43 174 l-23 53 20 39 c23 44 34 48 70 23 14 -10 27 -15 30 -13 3
3 6 -5 8 -17 4 -26 8 -28 27 -10 16 16 22 92 11 127 -10 31 -43 63 -56 55 -5
-3 -17 7 -26 22 -10 15 -29 38 -42 50 -22 18 -24 24 -13 37 7 9 11 22 8 30 -3
8 -2 16 3 18 4 2 10 19 11 38 4 41 41 72 79 66 14 -3 28 -5 33 -5z m4867 -63
c11 -12 20 -28 20 -36 0 -7 15 -32 34 -55 29 -35 60 -102 83 -179 3 -10 10
-18 17 -18 6 0 16 -10 21 -22 19 -42 85 -36 104 10 13 31 15 55 8 87 -2 11 1
26 7 34 8 11 8 13 -1 8 -8 -5 -8 -1 0 18 9 19 18 24 41 21 16 -2 34 -9 40 -17
16 -20 61 -23 79 -5 8 8 17 12 21 9 3 -4 6 -1 6 5 0 7 5 12 11 12 7 0 18 8 25
18 12 14 15 15 23 2 5 -8 7 -18 5 -22 -3 -4 2 -18 10 -30 9 -12 16 -33 16 -46
0 -26 -47 -82 -68 -82 -11 0 -13 -20 -11 -92 3 -85 2 -92 -18 -99 -15 -5 -34
-2 -60 11 -36 17 -38 17 -62 -1 -13 -10 -30 -19 -37 -19 -13 0 -18 -12 -15
-32 0 -5 -6 -8 -14 -8 -8 0 -15 -4 -15 -10 0 -5 -18 -15 -40 -21 -56 -17 -69
-35 -36 -50 14 -7 26 -16 26 -21 0 -5 6 -8 13 -6 6 2 26 -11 42 -28 28 -29 84
-64 102 -64 4 0 25 16 47 35 21 19 41 35 45 35 4 0 15 14 25 30 14 24 16 42
11 84 -6 44 -4 54 9 59 9 4 22 4 29 1 23 -8 59 -65 61 -93 5 -77 101 -107 315
-96 73 3 138 2 144 -3 15 -10 101 -39 143 -47 19 -3 49 1 75 10 24 9 54 19 67
22 13 3 26 11 28 18 3 7 35 25 72 41 93 39 127 67 168 139 19 35 45 70 58 78
29 19 66 11 66 -14 0 -11 3 -19 8 -19 4 0 15 -14 24 -30 15 -26 23 -30 60 -30
24 0 48 -4 53 -8 6 -4 23 -35 39 -69 27 -58 70 -103 98 -103 21 -1 50 -28 46
-42 -3 -7 1 -30 8 -51 7 -20 13 -40 12 -42 -2 -20 16 -101 25 -107 20 -12 37
4 37 35 0 66 11 14 15 -69 2 -56 1 -82 -5 -69 -8 18 -9 17 -9 -7 -1 -20 -5
-25 -19 -21 -10 2 -24 -3 -31 -11 -8 -9 -10 -16 -6 -16 4 0 2 -7 -5 -15 -7 -8
-10 -21 -7 -28 3 -7 -1 -21 -9 -32 -8 -10 -14 -36 -14 -56 0 -21 -5 -41 -10
-44 -8 -5 -8 -11 0 -20 7 -9 8 -20 2 -32 -5 -10 -18 -40 -29 -68 -12 -32 -25
-51 -38 -54 -35 -6 -79 27 -109 84 -16 30 -35 55 -42 55 -12 0 -19 30 -11 45
1 3 -16 17 -38 32 -22 14 -43 31 -47 37 -4 6 -21 4 -48 -7 -42 -16 -80 -10
-80 13 0 6 -6 10 -13 10 -8 0 -21 8 -30 18 -15 16 -11 17 66 15 71 -1 85 1
104 19 18 17 25 19 37 9 8 -7 12 -20 9 -28 -4 -11 -2 -14 5 -9 7 4 12 12 12
17 0 18 28 39 50 39 21 0 21 4 19 96 l-3 96 -49 49 c-27 27 -52 49 -55 50 -28
3 -46 9 -55 18 -6 6 -19 11 -29 11 -10 0 -18 4 -18 9 0 5 -16 15 -35 21 -50
17 -89 -6 -114 -67 -9 -22 -11 -45 -5 -70 8 -39 8 -73 -2 -131 -3 -23 -2 -32
5 -27 7 3 8 0 5 -10 -4 -8 -1 -21 5 -29 9 -11 7 -15 -9 -19 -11 -3 -18 -1 -14
4 3 5 0 9 -5 9 -6 0 -11 -3 -11 -7 0 -9 -4 -9 -190 -17 -149 -6 -255 12 -302
52 -25 21 -141 44 -293 58 -71 6 -125 -5 -195 -41 -16 -8 -46 -15 -67 -15 -64
0 -155 -38 -214 -90 l-54 -48 43 -83 c23 -46 46 -91 51 -99 30 -50 141 -291
141 -306 0 -11 9 -32 20 -49 21 -31 27 -85 10 -85 -5 0 -10 6 -10 14 0 8 -8
21 -19 28 -10 7 -22 29 -25 48 -12 59 -17 70 -30 70 -8 0 -11 12 -8 34 5 46
-13 79 -41 72 -12 -3 -16 -3 -9 0 19 9 15 44 -5 44 -10 0 -25 5 -33 11 -13 9
-12 10 3 5 15 -5 18 -1 15 17 -2 16 -9 21 -25 19 -17 -2 -23 2 -23 15 0 11 -5
24 -12 31 -9 9 -9 15 0 24 17 17 15 23 -14 37 -16 7 -24 17 -20 26 3 8 -3 20
-13 27 -10 7 -22 27 -28 43 -6 17 -24 45 -42 64 -20 22 -31 44 -32 65 -3 104
-2 101 -34 104 -31 4 -55 18 -55 32 0 15 35 17 63 3 23 -12 27 -11 27 1 0 8
-6 17 -12 20 -10 5 -10 7 0 12 18 9 15 21 -8 27 -11 3 -20 14 -20 24 0 24 -19
43 -42 43 -10 0 -18 5 -18 12 0 6 -6 19 -14 27 -18 20 -35 132 -30 191 2 25 0
54 -5 65 -4 11 -16 45 -26 75 -10 30 -22 59 -26 64 -5 6 -9 18 -9 28 0 10 -3
18 -7 18 -5 0 -13 12 -20 26 -10 21 -9 33 4 65 8 22 23 44 32 49 10 5 23 28
30 52 20 66 78 198 86 198 2 0 13 -10 25 -22z m-335 -27 c3 -11 12 -22 20 -24
15 -6 65 -100 65 -123 0 -8 15 -29 33 -47 18 -18 31 -31 28 -30 -2 2 -10 -6
-18 -17 -12 -17 -26 -20 -94 -20 -91 0 -119 10 -119 44 0 13 -7 29 -15 36 -17
14 -20 46 -4 55 6 4 8 13 5 21 -6 16 13 76 28 86 6 4 7 8 2 8 -5 0 -3 7 4 15
18 21 57 19 65 -4z m1507 -213 c31 -36 43 -86 27 -121 -10 -23 -14 -24 -43
-14 -17 6 -56 29 -86 51 -30 22 -57 41 -58 42 -2 2 -1 16 3 32 12 58 109 64
157 10z m-6931 -595 c16 -10 29 -22 29 -28 0 -6 8 -22 17 -35 18 -25 19 -28
21 -66 1 -12 12 -26 25 -32 21 -10 21 -11 2 -12 -35 -3 -80 2 -85 10 -3 4 -19
14 -36 23 -39 20 -61 86 -45 130 12 31 31 34 72 10z m2808 -467 c32 -33 32
-34 25 -105 -3 -39 -9 -73 -13 -75 -3 -2 -28 -6 -56 -7 l-50 -4 -7 40 c-22
108 -21 118 9 152 35 41 51 41 92 -1z m4491 -311 c7 -8 16 -52 21 -98 13 -131
19 -156 41 -168 16 -9 28 -4 71 29 29 22 78 52 109 67 31 15 62 33 69 41 18
21 40 17 128 -23 66 -31 81 -42 81 -61 0 -27 -44 -218 -66 -283 l-15 -46 -91
4 c-50 2 -99 8 -109 13 -10 6 -44 10 -77 10 -58 0 -60 -1 -76 -34 -9 -19 -16
-50 -16 -69 0 -20 -8 -69 -17 -109 -12 -53 -17 -130 -19 -278 -1 -113 -5 -243
-9 -290 -8 -85 0 -122 36 -171 9 -12 0 -36 -46 -120 -31 -57 -78 -140 -105
-184 -27 -44 -65 -109 -86 -144 -86 -149 -330 -484 -348 -478 -6 2 -16 22 -22
44 -7 22 -18 53 -26 69 -9 16 -30 92 -48 169 -18 77 -41 172 -52 210 -62 221
-76 277 -83 340 -11 103 -29 180 -64 269 -23 60 -34 112 -46 220 -8 77 -22
166 -31 196 -9 30 -19 73 -24 95 -5 22 -25 87 -45 145 -20 58 -41 130 -46 160
-12 64 -44 171 -65 218 -21 49 -18 62 24 79 63 27 453 18 498 -12 12 -7 36
-42 55 -77 29 -56 33 -74 37 -158 6 -158 -12 -178 -176 -193 -135 -12 -176
-31 -193 -88 -10 -31 -10 -45 -1 -60 7 -10 12 -35 12 -55 0 -27 4 -35 14 -31
8 3 22 -3 32 -14 12 -13 30 -19 63 -19 38 0 53 -6 79 -29 33 -31 40 -55 21
-67 -8 -4 -7 -9 2 -15 8 -5 -3 -8 -27 -7 -23 0 -53 -7 -68 -17 -27 -18 -35
-49 -15 -60 6 -4 14 -17 18 -28 5 -12 14 -22 22 -23 46 -3 79 -18 79 -36 0
-10 -8 -21 -17 -24 -59 -19 -73 -28 -84 -57 -24 -63 -2 -111 65 -143 76 -37
128 -46 269 -45 103 0 132 3 146 15 10 9 18 22 19 29 3 19 4 569 2 682 -2 94
1 107 38 210 27 72 43 136 47 185 10 117 45 293 63 313 19 21 36 22 52 2z
m-8660 -863 c0 -15 -5 -33 -11 -39 -9 -9 -8 -16 4 -27 20 -20 27 -20 27 -1 0
8 9 15 20 15 15 0 20 -7 20 -29 0 -16 -7 -37 -16 -46 -10 -10 -15 -27 -12 -46
4 -24 -1 -37 -21 -57 -37 -37 -75 -38 -112 -2 l-31 29 36 33 c20 18 36 40 36
48 0 9 7 26 16 38 8 12 12 27 9 32 -7 12 16 80 27 80 4 0 8 -13 8 -28z m6683
-1997 c6 -14 181 -135 196 -135 12 0 68 -63 83 -95 21 -42 36 -106 48 -208 6
-48 13 -94 16 -102 7 -16 -152 -123 -351 -237 l-120 -68 -8 72 c-13 122 10
405 40 488 11 30 28 98 37 150 26 147 27 150 41 150 7 0 15 -7 18 -15z m-4873
-481 c0 -13 9 -64 19 -112 21 -95 48 -328 39 -337 -3 -3 -43 14 -89 37 -73 38
-84 47 -82 68 2 14 7 70 11 125 8 85 15 112 47 177 37 77 55 91 55 42z"/>
<path d="M2710 9230 c0 -5 -10 -10 -22 -10 -23 0 -61 -21 -108 -59 -21 -17
-23 -23 -12 -38 32 -46 43 -85 33 -116 -16 -43 -14 -48 22 -87 29 -31 49 -62
51 -82 1 -3 4 -10 8 -14 4 -4 3 -13 -2 -19 -6 -7 -8 -20 -4 -28 5 -14 23 -16
104 -16 107 0 109 1 116 70 1 15 10 42 20 60 12 24 17 53 15 99 -1 38 4 80 12
100 18 43 14 56 -32 98 -29 28 -41 33 -71 29 -19 -2 -52 2 -74 10 -46 16 -56
16 -56 3z"/>
<path d="M1996 9171 c-14 -15 -17 -28 -11 -48 4 -15 9 -55 11 -88 3 -33 9 -69
14 -80 5 -11 10 -29 12 -39 3 -18 58 -44 58 -27 0 4 17 16 38 28 34 18 42 18
76 6 21 -7 42 -10 47 -8 4 3 24 6 44 7 22 1 35 6 35 15 0 7 5 13 10 13 14 0
13 46 -2 70 -10 15 -9 26 5 54 9 20 21 36 27 36 5 0 10 11 10 25 0 20 -6 25
-35 31 -20 3 -55 1 -80 -5 -46 -12 -131 -6 -150 9 -6 5 -29 12 -51 15 -32 6
-43 3 -58 -14z m254 -77 c0 -12 26 -19 53 -15 12 2 8 -37 -5 -45 -7 -5 -35
-11 -63 -16 -27 -4 -59 -10 -70 -13 -15 -5 -24 1 -38 24 -24 40 -9 77 35 89
39 10 88 -3 88 -24z"/>
<path d="M4569 8165 c-63 -18 -87 -31 -94 -56 -4 -11 -17 -24 -29 -28 -24 -10
-53 -57 -42 -68 8 -9 96 -9 136 -1 14 3 35 1 45 -3 20 -7 20 -7 0 -15 -11 -4
-24 -13 -28 -21 -4 -7 -17 -13 -27 -13 -28 0 -97 -70 -105 -105 -3 -17 -10
-45 -16 -63 -9 -28 -8 -37 7 -53 22 -24 76 -27 67 -3 -5 15 0 16 42 10 26 -4
57 -11 69 -16 17 -7 14 -9 -16 -9 -21 -1 -38 -5 -38 -10 0 -5 -15 -8 -32 -7
-51 2 -43 -27 12 -41 63 -16 121 -15 212 3 59 12 86 13 109 5 31 -11 71 -2 84
18 3 6 21 11 40 11 18 0 35 5 37 11 5 14 38 0 38 -16 0 -8 -4 -17 -10 -20 -13
-8 -13 -25 0 -25 5 0 37 55 70 123 50 104 65 127 95 143 25 13 33 23 30 35 -7
22 9 32 36 24 16 -5 19 -12 14 -34 -4 -18 0 -33 13 -46 10 -11 34 -47 54 -80
19 -33 41 -59 48 -57 6 1 14 -5 17 -15 7 -27 117 -70 213 -84 210 -29 256 -22
276 41 11 33 14 35 57 35 56 0 64 8 43 40 -9 14 -12 25 -6 25 41 0 -47 101
-120 137 -25 12 -62 25 -82 28 -47 7 -49 21 -6 30 18 4 39 11 48 15 8 4 27 13
41 20 35 16 32 35 -9 67 -41 31 -189 58 -262 47 -25 -4 -72 -8 -105 -9 -36 -1
-78 -10 -105 -23 -25 -11 -56 -23 -70 -26 -14 -3 -33 -19 -42 -36 -17 -31 -17
-31 10 -41 27 -10 93 -24 162 -33 19 -2 -10 -3 -66 -1 -97 4 -184 21 -184 37
0 5 7 8 15 8 8 0 15 5 15 10 0 6 -10 10 -23 10 -13 0 -43 17 -67 39 -47 42
-51 43 -230 61 -91 9 -200 23 -265 33 -16 3 -51 -1 -76 -8z"/>
<path d="M6383 7600 c-12 -5 -26 -18 -32 -29 -14 -26 -14 -31 2 -31 23 0 47
-34 77 -109 24 -58 28 -80 23 -121 -5 -42 -3 -49 9 -45 32 13 58 92 58 178 0
73 -3 87 -25 117 -38 52 -62 60 -112 40z"/>
<path d="M8307 7541 c-37 -38 -49 -121 -22 -151 24 -26 57 -25 82 3 22 24 39
121 28 157 -9 30 -54 25 -88 -9z"/>
<path d="M8805 7408 c-40 -15 -75 -43 -91 -74 -13 -24 -10 -28 44 -82 83 -83
89 -87 107 -72 8 7 15 20 15 30 0 10 9 38 20 62 23 53 15 97 -22 128 -26 22
-32 23 -73 8z"/>
<path d="M4966 7327 c-29 -29 -31 -39 -15 -68 10 -19 8 -20 -33 -18 -24 2 -46
8 -50 14 -5 7 -8 7 -8 -1 0 -14 57 -74 70 -74 13 0 13 -23 -1 -53 -9 -20 -21
-26 -63 -31 -93 -12 -126 -27 -153 -67 -29 -45 -49 -147 -39 -209 12 -83 79
-127 123 -82 32 32 115 83 167 102 51 19 207 34 323 32 82 -1 219 -44 245 -77
17 -22 29 -30 96 -66 32 -18 43 -3 49 70 3 34 10 64 14 67 12 7 11 51 -1 59
-5 3 -10 16 -10 29 0 12 -3 26 -7 30 -5 4 -9 12 -9 17 -1 5 -2 14 -3 19 0 6
-7 10 -14 10 -7 0 -28 8 -47 18 -19 10 -63 24 -97 32 -59 12 -61 14 -71 51 -8
33 -6 42 15 72 l24 34 -23 44 -24 44 -77 -3 c-43 -1 -94 2 -114 7 -28 8 -44 7
-69 -5 -30 -14 -36 -14 -65 0 -18 9 -50 19 -70 22 -32 5 -42 2 -63 -19z"/>
<path d="M3675 5500 c-3 -5 -12 -7 -20 -4 -7 3 -18 -4 -25 -16 -6 -11 -15 -18
-21 -15 -5 4 -7 10 -4 15 3 4 -4 6 -15 3 -11 -3 -18 -9 -15 -13 3 -5 -21 -14
-52 -20 -88 -18 -87 -18 -73 -35 10 -12 10 -15 -1 -15 -7 0 -2 -8 11 -17 l25
-18 -45 -5 c-31 -3 -45 -10 -45 -20 0 -8 -4 -18 -10 -22 -20 -15 13 -8 79 17
62 23 269 86 327 99 14 3 36 15 50 27 14 13 17 20 8 16 -9 -3 -20 -2 -25 3 -5
5 -36 13 -68 19 -73 13 -73 13 -81 1z"/>
<path d="M1913 6353 c-3 -10 -12 -33 -19 -52 -20 -48 -17 -120 5 -157 16 -26
24 -30 50 -26 17 2 31 9 31 14 0 6 6 8 14 5 10 -4 19 6 29 30 12 31 12 43 1
81 -8 24 -11 55 -8 68 5 19 2 24 -14 24 -11 0 -22 4 -24 8 -1 5 -15 12 -31 16
-21 5 -29 2 -34 -11z"/>
</g>
</svg>
